# xmcd
#
# Track frame offsets:
#	150
#	22073
#	42308
#	57526
#	71431
#	91063
#	115686
#	131802
#	147625
#	165779
#	183614
#	204613
#	222827
#	240294
#	259380
#	278678
#	292058
#	306941
#	326586
#
# Disc length: 4630 seconds
#
# Revision: 2
# Processed by: cddbd v1.5.2PL0 Copyright (c) Steve Scherf et al.
# Submitted via: EasyCDDAExtractor 11.1.0.1
#
DISCID=25121413
DTITLE=Various Artist - The East Coast Blues And Roots Music Festival 2000
DYEAR=2000
DGENRE=Blues
TTITLE0=ZZ Top - Pork Chop Sandwich
TTITLE1=Corey Harris - Basehead
TTITLE2=The Robert Cray Band - 24-7 Man
TTITLE3=Jon Cleary - Port Street Blues
TTITLE4=Jimmy Little - Down Below
TTITLE5=Spearhead - Rebel Music (3 O'Clock Roadblock)
TTITLE6=Ozomatli - Cumbia De Los Muertos
TTITLE7=Professor Ratbaggy - Love Letter
TTITLE8=Kasey Chambers - These Pines
TTITLE9=Kieran Kane And Kevin Welch - Life Down Here On Earth
TTITLE10=Marva Wright - Knocking On Heaven's Door
TTITLE11=Mary Chapin Carpenter - He Thinks He'll Keep Her
TTITLE12=Neil Finn - She Will Have Her Way
TTITLE13=Jonny Lang - Walking Away
TTITLE14=Eric Sardinas - Treat Me Right
TTITLE15=Southern Culture On The Skids - Devil's Stompin' Ground
TTITLE16=Royal Crown Revue - Trapped (In The Web Of Love)
TTITLE17=Terrance Simien - 500 Miles
TTITLE18=Burning Spear - Let's Move
EXTD=Submitted by KidRen
EXTT0=
EXTT1=
EXTT2=
EXTT3=
EXTT4=
EXTT5=
EXTT6=
EXTT7=
EXTT8=
EXTT9=
EXTT10=
EXTT11=
EXTT12=
EXTT13=
EXTT14=
EXTT15=
EXTT16=
EXTT17=
EXTT18=
PLAYORDER=
